<svg xmlns="http://www.w3.org/2000/svg" width="400" height="400" viewBox="0 0 400 400">
  <g fill="none" stroke="#129cd3" stroke-width="1.4" stroke-linecap="round" stroke-linejoin="round">

    <!-- SMARTPHONE 1 · top-left -->
    <g transform="translate(24,22) rotate(-16,15,30)">
      <rect x="0" y="0" width="30" height="58" rx="5"/>
      <rect x="3" y="8" width="24" height="40" rx="1"/>
      <rect x="10" y="3" width="10" height="2.5" rx="1.2"/>
      <circle cx="15" cy="53" r="2.5"/>
    </g>

    <!-- TV MONITOR · top-center -->
    <g transform="translate(138,6) rotate(5,44,32)">
      <rect x="0" y="0" width="88" height="56" rx="3"/>
      <rect x="5" y="5" width="78" height="38" rx="1"/>
      <line x1="34" y1="56" x2="28" y2="70"/>
      <line x1="54" y1="56" x2="60" y2="70"/>
      <line x1="20" y1="70" x2="68" y2="70"/>
    </g>

    <!-- HEADPHONES · top-right -->
    <g transform="translate(296,44) rotate(13,38,26)">
      <path d="M4,38 C4,4 72,4 72,38"/>
      <rect x="0" y="33" width="13" height="22" rx="6.5"/>
      <rect x="63" y="33" width="13" height="22" rx="6.5"/>
      <path d="M6,54 C6,62 14,62 14,54"/>
    </g>

    <!-- TABLET · left-center -->
    <g transform="translate(10,145) rotate(9,28,38)">
      <rect x="0" y="0" width="56" height="76" rx="5"/>
      <rect x="5" y="7" width="46" height="58" rx="1"/>
      <circle cx="28" cy="70" r="2.8"/>
      <line x1="22" y1="3.5" x2="34" y2="3.5"/>
    </g>

    <!-- REMOTE CONTROL · right-center -->
    <g transform="translate(345,95) rotate(-21,13,36)">
      <rect x="0" y="0" width="26" height="72" rx="11"/>
      <rect x="5" y="7" width="16" height="11" rx="2"/>
      <circle cx="8"  cy="28" r="2.5"/>
      <circle cx="18" cy="28" r="2.5"/>
      <circle cx="8"  cy="38" r="2.5"/>
      <circle cx="18" cy="38" r="2.5"/>
      <circle cx="8"  cy="48" r="2.5"/>
      <circle cx="18" cy="48" r="2.5"/>
      <circle cx="13" cy="59" r="3"/>
    </g>

    <!-- LAPTOP · center -->
    <g transform="translate(148,152) rotate(-5,45,32)">
      <rect x="0" y="0" width="90" height="58" rx="3"/>
      <rect x="4" y="4" width="82" height="46" rx="1"/>
      <path d="M-10,58 L100,58 L96,70 L-6,70 Z"/>
      <rect x="36" y="63" width="18" height="4" rx="2"/>
    </g>

    <!-- USB DRIVE · lower-left -->
    <g transform="translate(58,235) rotate(24,27,11)">
      <rect x="0" y="3" width="54" height="20" rx="5"/>
      <rect x="44" y="6" width="16" height="14" rx="3"/>
      <rect x="5"  y="8" width="9"  height="9" rx="1"/>
      <rect x="19" y="8" width="9"  height="9" rx="1"/>
    </g>

    <!-- SPEAKER · center-right -->
    <g transform="translate(250,196) rotate(-9,26,33)">
      <rect x="0" y="0" width="52" height="66" rx="6"/>
      <circle cx="26" cy="22" r="13"/>
      <circle cx="26" cy="22" r="7"/>
      <circle cx="26" cy="22" r="2.5"/>
      <circle cx="26" cy="50" r="9"/>
      <circle cx="26" cy="50" r="3"/>
      <rect x="8" y="6" width="10" height="6" rx="2"/>
    </g>

    <!-- SMARTPHONE 2 · right-lower -->
    <g transform="translate(318,228) rotate(11,15,30)">
      <rect x="0" y="0" width="30" height="60" rx="5"/>
      <rect x="3" y="9" width="24" height="40" rx="1"/>
      <circle cx="15" cy="55" r="2.5"/>
      <rect x="10" y="4" width="10" height="2.5" rx="1.2"/>
    </g>

    <!-- CAMERA · bottom-left -->
    <g transform="translate(28,305) rotate(-9,33,26)">
      <rect x="0" y="11" width="66" height="45" rx="4"/>
      <rect x="20" y="0" width="20" height="13" rx="3"/>
      <circle cx="33" cy="33" r="14"/>
      <circle cx="33" cy="33" r="9"/>
      <circle cx="33" cy="33" r="3"/>
      <circle cx="7"  cy="18" r="4"/>
      <circle cx="57" cy="16" r="2"/>
    </g>

    <!-- GAMEPAD · bottom-center -->
    <g transform="translate(188,314) rotate(9,35,23)">
      <path d="M5,10 C5,0 65,0 65,10 L68,28 C68,40 58,46 50,42 C46,40 41,38 35,38 C29,38 24,40 20,42 C12,46 2,40 2,28 Z"/>
      <line x1="13" y1="17" x2="13" y2="27"/>
      <line x1="8"  y1="22" x2="18" y2="22"/>
      <circle cx="52" cy="17" r="3"/>
      <circle cx="59" cy="23" r="3"/>
      <circle cx="45" cy="23" r="3"/>
      <circle cx="52" cy="29" r="3"/>
    </g>

    <!-- SMARTWATCH · bottom-right -->
    <g transform="translate(316,310) rotate(-14,22,30)">
      <rect x="6" y="14" width="32" height="34" rx="8"/>
      <rect x="11" y="0"  width="22" height="16" rx="3"/>
      <rect x="11" y="46" width="22" height="16" rx="3"/>
      <line x1="13" y1="26" x2="31" y2="26"/>
      <line x1="13" y1="32" x2="27" y2="32"/>
      <line x1="13" y1="38" x2="29" y2="38"/>
    </g>

    <!-- EARBUDS · filler -->
    <g transform="translate(104,268) rotate(-6,16,14)">
      <circle cx="8"  cy="8" r="8"/>
      <circle cx="8"  cy="8" r="3"/>
      <circle cx="24" cy="8" r="8"/>
      <circle cx="24" cy="8" r="3"/>
      <path d="M8,16 C8,22 24,22 24,16"/>
    </g>

  </g>
</svg>
